<?xml version="1.0" encoding="utf-8"?><svg width="120" height="120" viewBox="0 0 120 120" xmlns="http://www.w3.org/2000/svg" xmlns:xlink="http://www.w3.org/1999/xlink"><svg width="18" height="18" viewBox="0 0 18 18" id="icon-important-ver-2-14" x="60" y="60" xmlns="http://www.w3.org/2000/svg"><defs><path id="aa" d="M9 5.143a5.786 5.786 0 015.786 5.786v5.785h1.428a.5.5 0 01.5.5v.286a.5.5 0 01-.5.5H1.786a.5.5 0 01-.5-.5v-.286a.5.5 0 01.5-.5h1.428v-5.785A5.785 5.785 0 019 5.143zm0 1.286a4.5 4.5 0 00-4.493 4.253l-.007.247v5.785h9V10.93a4.5 4.5 0 00-4.253-4.494L9 6.43zm-1.929 7.714v1.286H5.786v-1.286H7.07zm.243-5.335c.16.114.37.44.287.773-.318.434-.493 1.015-.524 1.743l-.006.247v1.286H5.786v-1.286c0-1.194.214-2.051.643-2.571.328-.315.623-.379.885-.192zM.994 4.97l.082.038 1.917 1.107a.5.5 0 01.221.601l-.037.082-.143.248a.5.5 0 01-.601.22l-.082-.037L.433 6.12a.502.502 0 01-.221-.602l.038-.081.143-.248a.5.5 0 01.601-.22zm16.825.221l.143.248a.5.5 0 01-.183.683l-1.917 1.107a.5.5 0 01-.683-.183l-.143-.248a.5.5 0 01.183-.683l1.917-1.107a.5.5 0 01.683.183zM4.336 1.811l1.348 1.757a.499.499 0 01-.092.7l-.227.175a.5.5 0 01-.701-.093L3.316 2.594a.5.5 0 01.092-.701l.227-.174a.5.5 0 01.701.092zm9.96-.14l.076.048.227.174a.5.5 0 01.14.624l-.048.077-1.348 1.756a.5.5 0 01-.625.141l-.076-.048-.227-.174a.5.5 0 01-.14-.625l.048-.076 1.348-1.757a.498.498 0 01.625-.14zM9.143 0a.5.5 0 01.5.5v2.214a.5.5 0 01-.5.5h-.286a.5.5 0 01-.5-.5V.5a.5.5 0 01.5-.5h.286z"/></defs><g fill="none" fill-rule="evenodd"><mask id="ab" fill="#fff"><use xlink:href="#aa"/></mask><use fill="#000" xlink:href="#aa"/><g fill="#666" fill-rule="nonzero" mask="url(#ab)"><path d="M0 0h18v18H0z"/></g></g></svg><svg width="18" height="18" viewBox="0 0 18 18" id="icon-share-14" x="78" y="60" xmlns="http://www.w3.org/2000/svg"><defs><path id="ba" d="M1.929 0a1.928 1.928 0 011.894 2.293l5.858 3.95a1.928 1.928 0 11-.068 2.881l-5.81 3.919a1.929 1.929 0 11-.706-1.077l5.92-3.993a2.012 2.012 0 01.016-.615L3.17 3.403A1.928 1.928 0 111.929 0z"/></defs><g fill="none" fill-rule="evenodd" transform="translate(2.571 1.286)"><mask id="bb" fill="#fff"><use xlink:href="#ba"/></mask><use fill="#000" xlink:href="#ba"/><g fill="#666" fill-rule="nonzero" mask="url(#bb)"><path d="M-2.571-1.286h18v18h-18z"/></g></g></svg><svg width="60" height="60" viewBox="0 0 60 60" id="icon-tmi-checkflag-01" xmlns="http://www.w3.org/2000/svg"><defs><path id="cb" d="M5.451 2.552C8.074.851 10.851 0 13.782 0c4.397 0 10.072 2.552 14.469 2.552 2.93 0 5.854-.85 8.77-2.552L31.51 23.238c-3.053 1.53-5.918 2.294-8.595 2.294-4.016 0-10.507-2.51-14.593-2.51-2.725 0-5.499.837-8.321 2.51l5.451-22.98z"/><path id="cd" d="M29.274 16.194l-1.343 5.17c-1.154.48-2.365.865-3.632 1.151-1.268.287-2.511.46-3.732.516l1.32-5.084c1.123-.013 2.322-.184 3.599-.511a30.744 30.744 0 003.788-1.242zm-21.218-.788a34.284 34.284 0 016.601 1.271l-1.32 5.083a38.95 38.95 0 00-3.264-.78 39.08 39.08 0 00-3.337-.49l1.32-5.084zm7.921-3.813a29.521 29.521 0 007.231 1.271l-1.32 5.083a25.967 25.967 0 01-3.683-.378 25.264 25.264 0 01-3.548-.892l1.32-5.084zm-6.6-1.27l-1.32 5.083c-1.547-.082-2.94.024-4.179.318-1.24.293-2.532.822-3.878 1.588l1.32-5.083c1.155-.72 2.447-1.25 3.879-1.589 1.43-.338 2.823-.444 4.178-.318zm22.538-4.296l-1.343 5.17c-1.154.48-2.365.865-3.632 1.152a21.403 21.403 0 01-3.732.515l1.32-5.083c1.123-.014 2.322-.184 3.599-.512a30.744 30.744 0 003.788-1.242zm-21.218-.788a34.284 34.284 0 016.601 1.271l-1.32 5.083a38.941 38.941 0 00-3.264-.779 39.537 39.537 0 00-3.337-.492l1.32-5.083zm7.935-3.864a29.24 29.24 0 003.558.856c1.202.211 2.427.35 3.672.415l-1.32 5.083a26.085 26.085 0 01-3.682-.378 25.143 25.143 0 01-3.549-.893l1.32-5.083zM12.03.104l-1.32 5.083c-1.547-.081-2.94.025-4.179.318-1.239.293-2.531.823-3.878 1.589l1.32-5.084C5.13 1.29 6.423.76 7.854.422c1.43-.339 2.823-.445 4.176-.318z"/><filter id="ca" width="139%" height="144.4%" x="-19.5%" y="-22.2%" filterUnits="objectBoundingBox"><feOffset dx="1" dy="1" in="SourceAlpha" result="shadowOffsetOuter1"/><feGaussianBlur in="shadowOffsetOuter1" result="shadowBlurOuter1" stdDeviation="1.5"/><feColorMatrix in="shadowBlurOuter1" result="shadowMatrixOuter1" values="0 0 0 0 0.274509804 0 0 0 0 0.82745098 0 0 0 0 0.91372549 0 0 0 0.275267701 0"/><feMerge><feMergeNode in="shadowMatrixOuter1"/><feMergeNode in="SourceGraphic"/></feMerge></filter><rect id="cf" width="2.191" height="35.05" x="4.381" y="0" rx="1.095"/></defs><g fill="none" fill-rule="evenodd" transform="translate(2.553 1.915)"><g filter="url(#ca)" transform="translate(7.394 11.683)"><g transform="translate(2.819 .444)"><mask id="cc" fill="#fff"><use xlink:href="#cb"/></mask><use fill="#46D3E9" xlink:href="#cb"/><path fill="#25C0D8" d="M19.852-4.453l4.744.038a3.288 3.288 0 013.26 3.26l.218 27.829a3.286 3.286 0 01-3.26 3.311h-.053l-4.744-.038a3.288 3.288 0 01-3.26-3.26L16.54-1.142a3.285 3.285 0 013.26-3.311h.052z" mask="url(#cc)" transform="rotate(14 22.307 12.766)"/><path fill="#85E3F1" d="M6.258-5.71l1.917.017a3.286 3.286 0 013.258 3.258l.264 31.64a3.286 3.286 0 01-3.258 3.313h-.056l-1.918-.016a3.286 3.286 0 01-3.257-3.259l-.264-31.64A3.287 3.287 0 016.202-5.71h.056z" mask="url(#cc)" transform="rotate(15 7.32 13.404)"/><path fill="#0AB0CA" d="M17.562 15.338a2.88 2.88 0 012.854 2.854l.092 11.098a2.782 2.782 0 01-2.759 2.805h-.047a2.879 2.879 0 01-2.854-2.854l-.092-11.097a2.782 2.782 0 012.759-2.806h.047z" mask="url(#cc)" transform="rotate(15 17.632 23.717)"/><path fill="#C9EEF4" d="M12.455-6.552l.851.008a3.286 3.286 0 013.256 3.257l.09 10.18a3.286 3.286 0 01-3.256 3.315h-.06l-.85-.008A3.286 3.286 0 019.23 6.943l-.09-10.18a3.287 3.287 0 013.256-3.315h.06z" mask="url(#cc)" transform="rotate(16 12.896 1.828)"/></g><g transform="translate(5.372 1.669)"><mask id="ce" fill="#fff"><use xlink:href="#cd"/></mask><use fill="#FFF" xlink:href="#cd"/><path fill="#D5F8FD" d="M17.4-5.684l4.895.023a3.284 3.284 0 013.27 3.27l.13 27.857a3.287 3.287 0 01-3.272 3.301h-.03l-4.896-.023a3.285 3.285 0 01-3.27-3.27l-.129-27.857a3.286 3.286 0 013.271-3.301h.03z" mask="url(#ce)" transform="rotate(14 19.896 11.541)"/><path fill="#EBFCFF" d="M3.62-6.949l2.031.01a3.288 3.288 0 013.27 3.27l.155 31.675a3.285 3.285 0 01-3.27 3.302h-.032l-2.03-.01a3.286 3.286 0 01-3.27-3.27L.32-3.646a3.285 3.285 0 013.27-3.302h.032z" mask="url(#ce)" transform="rotate(15 4.697 12.18)"/><path fill="#A7EEF9" d="M15.114 14.106a2.896 2.896 0 012.882 2.881l.054 11.038a2.84 2.84 0 01-2.825 2.854h-.028a2.896 2.896 0 01-2.882-2.882l-.054-11.038a2.838 2.838 0 012.825-2.853h.028z" mask="url(#ce)" transform="rotate(15 15.155 22.492)"/><path fill="#F3FDFF" d="M8.764-6.957a2.175 2.175 0 012.162 2.163l.065 12.468a2.13 2.13 0 01-2.118 2.14h-.022A2.175 2.175 0 016.69 7.65L6.624-4.817a2.129 2.129 0 012.117-2.14h.023z" mask="url(#ce)" transform="rotate(16 8.807 1.428)"/></g><g transform="translate(0 .092)"><mask id="cg" fill="#fff"><use xlink:href="#cf"/></mask><use fill="#B88A61" fill-rule="nonzero" transform="rotate(13.8 5.477 17.525)" xlink:href="#cf"/><rect width="1.46" height="18.255" x="6.395" y=".155" fill="#D5AC86" fill-rule="nonzero" mask="url(#cg)" rx=".73" transform="rotate(13.8 7.125 9.283)"/><rect width="1.46" height="9.493" x="7.44" y=".282" fill="#F7DABF" fill-rule="nonzero" mask="url(#cg)" rx=".73" transform="rotate(13.8 8.17 5.028)"/></g></g><circle cx="51.48" cy="25.371" r="1.095" fill="#C9E9ED"/><circle cx="1.826" cy="34.134" r="1.826" fill="#75D3E1"/><circle cx="21.882" cy="7.846" r="1.826" fill="#75D3E1"/><circle cx="42.717" cy="45.817" r="1.826" fill="#75D3E1"/><circle cx="5.477" cy="26.831" r="1.095" fill="#C9E9ED"/><circle cx="24.462" cy="50.929" r="1.095" fill="#C9E9ED"/><circle cx="41.598" cy="1.095" r="1.095" fill="#C9E9ED"/><path fill="#BE8FD7" d="M17.331 40.703v1.46h-1.46v1.461h1.46v1.46h1.46v-1.46h1.461v-1.461h-1.461v-1.46zm34.855-8.395v1.461h-1.46v1.46h1.46v1.46h1.461v-1.46h1.46v-1.46h-1.46v-1.461z"/></g></svg><svg width="60" height="60" viewBox="0 0 60 60" id="icon-tmi-sademotion-01" x="60" xmlns="http://www.w3.org/2000/svg"><defs><filter id="da" width="148.5%" height="148.5%" x="-24.2%" y="-24.2%" filterUnits="objectBoundingBox"><feOffset dx="1" dy="1" in="SourceAlpha" result="shadowOffsetOuter1"/><feGaussianBlur in="shadowOffsetOuter1" result="shadowBlurOuter1" stdDeviation="1.5"/><feColorMatrix in="shadowBlurOuter1" result="shadowMatrixOuter1" values="0 0 0 0 0.870588235 0 0 0 0 0.0431372549 0 0 0 0 0.196078431 0 0 0 0.246694712 0"/><feMerge><feMergeNode in="shadowMatrixOuter1"/><feMergeNode in="SourceGraphic"/></feMerge></filter><circle id="db" cx="16.43" cy="16.43" r="16.43"/><path id="dd" d="M3.286 9.493c1.815 0 3.286-1.328 3.286-2.967C6.572 3.56 3.943 0 3.286 0S0 3.56 0 6.526c0 1.639 1.471 2.967 3.286 2.967z"/></defs><g fill="none" fill-rule="evenodd" transform="translate(1.277 4.468)"><circle cx="51.521" cy="24.712" r="1.095" fill="#F2B7C2"/><circle cx="1.826" cy="33.74" r="1.826" fill="#F51747"/><circle cx="20.974" cy="1.826" r="1.826" fill="#F51747"/><circle cx="34.379" cy="48.421" r="1.826" fill="#F51747"/><circle cx="8.668" cy="26.193" r="1.095" fill="#F2B7C2"/><circle cx="41.946" cy="43.223" r="1.095" fill="#F2B7C2"/><circle cx="41.946" cy="6.202" r="1.095" fill="#F2B7C2"/><path fill="#EBAB86" d="M9.033 37.511v1.461h-1.46v1.46h1.46v1.461h1.461v-1.461h1.46v-1.46h-1.46v-1.461zm44.768-5.596v1.46H52.34v1.461h1.461v1.46h1.46v-1.46h1.461v-1.461h-1.461v-1.46z"/><g filter="url(#da)" transform="translate(12.046 9.217)"><mask id="dc" fill="#fff"><use xlink:href="#db"/></mask><use fill="#DE0B32" xlink:href="#db"/><ellipse cx="13.509" cy="13.144" fill="#F4144C" mask="url(#dc)" rx="16.43" ry="16.795"/><circle cx="13.144" cy="10.953" r="14.604" fill="#FD446E" mask="url(#dc)"/><path fill="#FFF" d="M13.874 18.986c.708-1.46 1.682-2.191 2.92-2.191 1.86 0 2.39 1.095 2.922 2.19-1.947-.73-3.895-.73-5.842 0z" mask="url(#dc)"/><path fill="#44CEF4" d="M11.683 17.525c.404 0 .73-.306.73-.684 0-.685-.584-1.507-.73-1.507-.146 0-.73.822-.73 1.507 0 .378.327.684.73.684z" mask="url(#dc)"/><rect width="2.191" height="2.921" x="20.446" y="11.683" fill="#FFF" mask="url(#dc)" rx="1.095"/><rect width="2.191" height="2.921" x="11.187" y="11.472" fill="#FFF" mask="url(#dc)" rx="1.095"/><rect width="1" height="2.921" x="21.906" y="9.493" fill="#FFF" mask="url(#dc)" rx=".5" transform="rotate(-48 22.271 10.953)"/><rect width="1" height="2.921" x="10.953" y="9.493" fill="#FFF" mask="url(#dc)" rx=".5" transform="scale(-1 1) rotate(-48 0 36.375)"/></g><g transform="translate(36.873 10.288)"><mask id="de" fill="#fff"><use xlink:href="#dd"/></mask><use fill="#44CEF4" xlink:href="#dd"/><path fill="#74DDFA" d="M1.107 8.333c1.613 0 3.687-.678 3.687-3.905 0-3.226-2.513-6.11-4.126-6.11-1.613 0-1.716 2.884-1.716 6.11 0 3.227.542 3.905 2.155 3.905z" mask="url(#de)" transform="rotate(13 1.873 3.325)"/><ellipse cx=".365" cy="4.746" fill="#B8F0FF" mask="url(#de)" rx="1.826" ry="2.556" transform="rotate(14 .365 4.746)"/></g></g></svg><svg width="60" height="60" viewBox="0 0 60 60" id="icon-tmi-trophy-01" y="60" xmlns="http://www.w3.org/2000/svg"><defs><path id="eb" d="M1.095 0H13.51c.605 0 1.095.49 1.095 1.095v1.096H0V1.095C0 .49.49 0 1.095 0z"/><path id="ed" d="M1.095 0C1.095 3.164.73 5.355 0 6.572h4.381C3.651 5.598 3.286 3.408 3.286 0h-2.19z"/><path id="ef" d="M28.48 0c2.857 0 3.588 2.404 3.56 3.612l-.002.08c-.7 13.117-5.293 19.675-13.78 19.675-8.492 0-13.085-6.565-13.781-19.695C4.417 2.526 5.083.11 7.843.004L8.035 0h20.444z"/><filter id="ea" width="143.2%" height="150%" x="-21.6%" y="-25%" filterUnits="objectBoundingBox"><feOffset dx="1" dy="1" in="SourceAlpha" result="shadowOffsetOuter1"/><feGaussianBlur in="shadowOffsetOuter1" result="shadowBlurOuter1" stdDeviation="1.5"/><feColorMatrix in="shadowBlurOuter1" result="shadowMatrixOuter1" values="0 0 0 0 1 0 0 0 0 0.694117647 0 0 0 0 0.0941176471 0 0 0 0.246039117 0"/><feMerge><feMergeNode in="shadowMatrixOuter1"/><feMergeNode in="SourceGraphic"/></feMerge></filter></defs><g fill="none" fill-rule="evenodd" transform="translate(5.106 1.277)"><g filter="url(#ea)" transform="translate(6.48 16.254)"><g transform="translate(10.956 28.478)"><mask id="ec" fill="#fff"><use xlink:href="#eb"/></mask><use fill="#FFB118" xlink:href="#eb"/><rect width="13.144" height="1.46" fill="#FFC95E" mask="url(#ec)" rx=".73"/><rect width="7.302" height="1" x="2.921" fill="#FFE7B6" mask="url(#ec)" rx=".365"/></g><g transform="translate(16.067 21.906)"><mask id="ee" fill="#fff"><use xlink:href="#ed"/></mask><use fill="#FFB118" xlink:href="#ed"/><path fill="#F58C00" d="M.73 2.92c1.947.488 3.043 1.096 3.286 1.826.244.73.244-.73 0-4.38H.366L.73 2.92z" mask="url(#ee)"/></g><path fill="#FFB118" d="M30.671 4.381c2.973-.338 4.799.149 5.477 1.46 1.018 1.968.41 4.493-1.408 7.088-1.212 1.73-3.304 3.017-6.277 3.86l.789-2.54c1.556-.508 2.756-1.259 3.6-2.253 1.265-1.49 2.005-3.358 1.47-4.694-.356-.89-1.573-1.134-3.65-.73v-2.19zm-24.701 0c-2.972-.338-4.798.149-5.476 1.46-1.018 1.968-.41 4.493 1.408 7.088 1.212 1.73 3.304 3.017 6.277 3.86l-.789-2.54c-1.556-.508-2.756-1.259-3.6-2.253-1.265-1.49-2.005-3.358-1.47-4.694.356-.89 1.573-1.134 3.65-.73v-2.19z"/><mask id="eg" fill="#fff"><use xlink:href="#ef"/></mask><use fill="#FFB118" fill-rule="nonzero" xlink:href="#ef"/><path fill="#FFC95E" d="M6.574 2.92c0 5.843 2.191 14.97 9.858 14.97 7.668 0 10.588-7.667 10.588-14.97 0-2.92-.73-4.38-2.19-4.38-10.71-.487-16.43-.366-17.16.365C6.574 0 6.574 1.46 6.574 2.92z" mask="url(#eg)"/><path fill="#FFE7B6" d="M15.702 9.858c3.831 0 6.937-3.645 6.937-9.493 0-5.848-3.106-10.588-6.937-10.588-3.831 0-6.937 4.74-6.937 10.588 0 5.848 3.106 9.493 6.937 9.493z" mask="url(#eg)"/></g><path fill="#FFB118" d="M24.827 11.05c.22 0 1.096.835 1.096 1.878 0 .576-.49 1.043-1.096 1.043-.605 0-1.095-.467-1.095-1.043 0-1.043.876-1.878 1.095-1.878zm2.066-.855c.154-.155 1.364-.185 2.102.553.407.407.39 1.084-.037 1.512-.428.428-1.105.444-1.512.037-.738-.738-.708-1.947-.553-2.102zm-6.233.553c.737-.738 1.947-.708 2.102-.553.155.155.184 1.364-.553 2.102-.408.407-1.085.39-1.512-.037-.428-.428-.445-1.105-.037-1.512zm8.966-3.714c.576 0 1.043.49 1.043 1.095s-.467 1.096-1.043 1.096c-1.043 0-1.878-.877-1.878-1.096 0-.219.835-1.095 1.878-1.095zm-9.597 0c1.043 0 1.877.876 1.877 1.095 0 .22-.834 1.096-1.877 1.096-.576 0-1.043-.49-1.043-1.096 0-.605.467-1.095 1.043-1.095zm7.417-3.072c.407-.408 1.084-.391 1.512.037.428.427.444 1.104.037 1.512-.738.737-1.948.708-2.102.553-.155-.155-.185-1.365.553-2.102zm-6.75.037c.428-.428 1.105-.445 1.513-.037.737.737.708 1.947.553 2.102-.155.155-1.365.184-2.102-.553-.408-.408-.391-1.085.037-1.512zm4.131-1.711c.605 0 1.096.467 1.096 1.043 0 1.043-.877 1.878-1.096 1.878-.219 0-1.095-.835-1.095-1.878 0-.576.49-1.043 1.095-1.043z"/><circle cx="46.369" cy="11.14" r="1.095" fill="#FFE7B6"/><circle cx="43.448" cy="14.791" r="1.826" fill="#FFC95E"/><circle cx="5.017" cy="49.06" r="1.826" fill="#FFC95E"/><circle cx="1.095" cy="21.363" r="1.095" fill="#FFE7B6"/><circle cx="43.223" cy="53.436" r="1.095" fill="#FFE7B6"/><circle cx="8.755" cy="41.946" r="1.095" fill="#FFE7B6"/><circle cx="33.01" cy="1.095" r="1.095" fill="#FFE7B6"/><path fill="#8CDCE0" d="M46.734 34.871v1.461h-1.461v1.46h1.461v1.461h1.46v-1.461h1.46v-1.46h-1.46v-1.461zM7.67 7.491v1.46H6.209v1.461H7.67v1.46h1.46v-1.46h1.461V8.951H9.13v-1.46z"/></g></svg><svg width="18" height="18" viewBox="0 0 18 18" id="icon-view-14" x="96" y="60" xmlns="http://www.w3.org/2000/svg"><defs><path id="fa" d="M9.032.032c3.016-.015 6.02 2.102 9.014 6.35-3.037 4.28-6.063 6.428-9.078 6.443-3.016.015-6.02-2.102-9.014-6.35C2.991 2.194 6.017.047 9.032.031zm-.006 1.28c-2.268.011-4.675 1.56-7.189 4.765l-.299.388.019.027c2.489 3.304 4.888 4.946 7.165 5.049l.252.005c2.268-.012 4.675-1.56 7.189-4.766l.299-.39-.019-.025C13.863 2.94 11.378 1.3 9.026 1.312zM9 2.572c.392 0 .77.06 1.127.17C9.462 3.042 9 3.717 9 4.5a1.92 1.92 0 001.91 1.929c.774 0 1.442-.467 1.74-1.137.11.358.168.74.168 1.137 0 2.13-1.71 3.857-3.818 3.857-2.109 0-3.818-1.727-3.818-3.857S6.892 2.57 9 2.57z"/></defs><g fill="none" fill-rule="evenodd" transform="translate(0 2.571)"><mask id="fb" fill="#fff"><use xlink:href="#fa"/></mask><use fill="#000" fill-rule="nonzero" xlink:href="#fa"/><g fill="#666" fill-rule="nonzero" mask="url(#fb)"><path d="M0-2.571h18v18H0z"/></g></g></svg></svg>