<svg xmlns="http://www.w3.org/2000/svg" xmlns:xlink="http://www.w3.org/1999/xlink" width="94" height="94" viewBox="0 0 94 94">
    <defs>
        <path id="prefix__b" d="M8.54 3.999C12.65 1.333 17 0 21.593 0c6.888 0 15.78 3.999 22.667 3.999C48.851 3.999 53.432 2.666 58 0l-8.636 36.406C44.58 38.802 40.092 40 35.898 40c-6.291 0-16.46-3.931-22.863-3.931C8.767 36.069 4.422 37.379 0 40L8.54 3.999z"/>
        <path id="prefix__d" d="M45.863 25.37l-2.104 8.1c-1.809.753-3.706 1.355-5.691 1.804-1.985.45-3.934.719-5.846.808l2.069-7.964c1.758-.021 3.637-.289 5.637-.802 2-.514 3.978-1.162 5.935-1.946zM12.62 24.136c1.784.167 3.53.415 5.236.744 1.707.328 3.408.744 5.105 1.247l-2.068 7.964c-1.714-.488-3.418-.895-5.112-1.221-1.695-.327-3.438-.583-5.23-.77l2.07-7.964zm12.41-5.973c1.832.563 3.69 1.01 5.574 1.341 1.885.331 3.803.548 5.754.65l-2.068 7.964c-1.955-.063-3.878-.26-5.77-.593-1.89-.332-3.744-.798-5.559-1.398l2.069-7.964zM14.69 16.172l-2.069 7.964c-2.422-.128-4.604.038-6.545.498-1.942.459-3.967 1.288-6.076 2.488l2.069-7.964C3.877 18.03 5.902 17.2 8.144 16.67c2.243-.531 4.424-.697 6.546-.498zM50 9.442l-2.104 8.1c-1.808.753-3.705 1.355-5.69 1.804-1.986.45-3.935.719-5.847.808l2.069-7.964c1.758-.021 3.637-.289 5.637-.802 2-.514 3.979-1.162 5.935-1.946zM16.759 8.208c1.784.167 3.53.415 5.236.744 1.706.328 3.408.744 5.105 1.247l-2.069 7.964c-1.713-.488-3.417-.895-5.112-1.221-1.695-.326-3.438-.583-5.23-.77l2.07-7.964zm12.43-6.054c1.832.563 3.69 1.01 5.575 1.341 1.884.331 3.802.548 5.754.65l-2.069 7.964c-1.954-.063-3.877-.26-5.769-.593-1.891-.332-3.744-.798-5.56-1.398l2.07-7.964zM18.85.163l-2.07 7.964c-2.422-.128-4.603.038-6.545.497-1.941.46-3.966 1.29-6.075 2.49l2.068-7.965c1.808-1.128 3.834-1.958 6.076-2.488 2.242-.531 4.424-.697 6.545-.498z"/>
        <filter id="prefix__a" width="138.1%" height="142.9%" x="-19%" y="-21.4%" filterUnits="objectBoundingBox">
            <feOffset dx="2" dy="2" in="SourceAlpha" result="shadowOffsetOuter1"/>
            <feGaussianBlur in="shadowOffsetOuter1" result="shadowBlurOuter1" stdDeviation="2"/>
            <feColorMatrix in="shadowBlurOuter1" result="shadowMatrixOuter1" values="0 0 0 0 0.274509804 0 0 0 0 0.82745098 0 0 0 0 0.91372549 0 0 0 0.275267701 0"/>
            <feMerge>
                <feMergeNode in="shadowMatrixOuter1"/>
                <feMergeNode in="SourceGraphic"/>
            </feMerge>
        </filter>
        <rect id="prefix__f" width="3.432" height="54.912" x="6.864" y="0" rx="1.716"/>
    </defs>
    <g fill="none" fill-rule="evenodd" transform="translate(4 3)">
        <g filter="url(#prefix__a)" transform="translate(11.584 18.304)">
            <g transform="translate(4.416 .696)">
                <mask id="prefix__c" fill="#fff">
                    <use xlink:href="#prefix__b"/>
                </mask>
                <use fill="#46D3E9" xlink:href="#prefix__b"/>
                <path fill="#25C0D8" d="M31.101-6.977l7.433.06c2.811.023 5.084 2.297 5.106 5.108l.342 43.597c.022 2.844-2.264 5.166-5.108 5.189h-.081l-7.433-.06c-2.811-.023-5.084-2.297-5.106-5.108l-.342-43.597c-.022-2.844 2.264-5.166 5.107-5.189h.082z" mask="url(#prefix__c)" transform="rotate(14 34.947 20)"/>
                <path fill="#85E3F1" d="M9.804-8.945l3.004.026c2.809.024 5.08 2.295 5.103 5.104l.414 49.57c.024 2.842-2.261 5.166-5.104 5.19h-.088l-3.004-.026c-2.809-.024-5.08-2.295-5.103-5.104l-.414-49.57c-.024-2.842 2.261-5.166 5.105-5.19h.087z" mask="url(#prefix__c)" transform="rotate(15 11.469 21)"/>
                <path fill="#0AB0CA" d="M27.514 24.03c2.46.02 4.45 2.01 4.47 4.471l.146 17.386c.02 2.408-1.916 4.376-4.323 4.396h-.074c-2.46-.022-4.45-2.011-4.47-4.472l-.146-17.386c-.02-2.408 1.915-4.376 4.323-4.396h.074z" mask="url(#prefix__c)" transform="rotate(15 27.623 37.156)"/>
                <path fill="#C9EEF4" d="M19.514-10.264l1.333.012c2.807.026 5.076 2.295 5.1 5.102l.142 15.948c.025 2.843-2.26 5.169-5.102 5.194h-.093l-1.333-.012c-2.807-.026-5.076-2.296-5.1-5.103L14.318-5.07c-.025-2.843 2.259-5.168 5.102-5.193h.093z" mask="url(#prefix__c)" transform="rotate(16 20.204 2.864)"/>
            </g>
            <g transform="translate(8.416 2.614)">
                <mask id="prefix__e" fill="#fff">
                    <use xlink:href="#prefix__d"/>
                </mask>
                <use fill="#FFF" xlink:href="#prefix__d"/>
                <path fill="#D5F8FD" d="M27.26-8.905l7.67.036c2.824.013 5.11 2.3 5.123 5.124l.201 43.642c.013 2.843-2.28 5.158-5.124 5.171h-.048l-7.67-.036c-2.824-.013-5.11-2.3-5.123-5.124l-.201-43.642c-.014-2.843 2.28-5.158 5.124-5.171h.048z" mask="url(#prefix__e)" transform="rotate(14 31.17 18.082)"/>
                <path fill="#EBFCFF" d="M5.673-10.887l3.18.016c2.824.014 5.109 2.3 5.123 5.123l.243 49.625c.014 2.843-2.28 5.159-5.123 5.173h-.05l-3.181-.016c-2.823-.014-5.108-2.3-5.122-5.123L.499-5.713c-.014-2.844 2.28-5.16 5.123-5.174h.05z" mask="url(#prefix__e)" transform="rotate(15 7.36 19.082)"/>
                <path fill="#A7EEF9" d="M23.679 22.099c2.488.012 4.502 2.026 4.514 4.515l.085 17.292c.012 2.457-1.97 4.458-4.426 4.47h-.044c-2.488-.012-4.502-2.026-4.514-4.514l-.085-17.293c-.012-2.457 1.97-4.458 4.426-4.47h.044z" mask="url(#prefix__e)" transform="rotate(15 23.743 35.238)"/>
                <path fill="#F3FDFF" d="M13.73-10.899c1.867.01 3.378 1.521 3.387 3.388l.102 19.533c.01 1.842-1.476 3.342-3.317 3.352h-.035c-1.867-.01-3.378-1.52-3.388-3.388l-.101-19.533c-.01-1.841 1.475-3.342 3.317-3.352h.035z" mask="url(#prefix__e)" transform="rotate(16 13.798 2.238)"/>
            </g>
            <g transform="translate(0 .144)">
                <mask id="prefix__g" fill="#fff">
                    <use xlink:href="#prefix__f"/>
                </mask>
                <use fill="#B88A61" fill-rule="nonzero" transform="rotate(13.8 8.58 27.456)" xlink:href="#prefix__f"/>
                <rect width="2.288" height="28.6" x="10.019" y=".243" fill="#D5AC86" fill-rule="nonzero" mask="url(#prefix__g)" rx="1.144" transform="rotate(13.8 11.163 14.543)"/>
                <rect width="2.288" height="14.872" x="11.656" y=".441" fill="#F7DABF" fill-rule="nonzero" mask="url(#prefix__g)" rx="1.144" transform="rotate(13.8 12.8 7.877)"/>
            </g>
        </g>
        <circle cx="80.652" cy="39.748" r="1.716" fill="#C9E9ED"/>
        <circle cx="2.86" cy="53.476" r="2.86" fill="#75D3E1"/>
        <circle cx="34.282" cy="12.292" r="2.86" fill="#75D3E1"/>
        <circle cx="66.924" cy="71.78" r="2.86" fill="#75D3E1"/>
        <circle cx="8.58" cy="42.036" r="1.716" fill="#C9E9ED"/>
        <circle cx="38.324" cy="79.788" r="1.716" fill="#C9E9ED"/>
        <circle cx="65.17" cy="1.716" r="1.716" fill="#C9E9ED"/>
        <path fill="#BE8FD7" d="M27.152 63.768L27.152 66.056 24.864 66.056 24.864 68.344 27.152 68.344 27.152 70.632 29.44 70.632 29.44 68.344 31.728 68.344 31.728 66.056 29.44 66.056 29.44 63.768zM81.758 50.616L81.758 52.904 79.47 52.904 79.47 55.192 81.758 55.192 81.758 57.48 84.046 57.48 84.046 55.192 86.334 55.192 86.334 52.904 84.046 52.904 84.046 50.616z"/>
    </g>
</svg>
