<svg xmlns="http://www.w3.org/2000/svg" xmlns:xlink="http://www.w3.org/1999/xlink" width="14" height="14" viewBox="0 0 14 14">
    <defs>
        <path id="prefix__a" d="M11 9l.001.984c-.552.344-1.22.516-2.001.516V9h2zM5 7v2H3V7h2zm4 0v2H7V7h2zm3 0v2h-1V7h1zM7 5v2H5V5h2zm4 0v2H9V5h2zM5 3v2H3V3h2zm4 0v2H7V3h2zm3 0v2h-1V3h1zM1 5h2v2H1v2h2v.073c-.845.133-1.512.448-2 .945V13.5c0 .276-.224.5-.5.5s-.5-.224-.5-.5V.5C0 .224.224 0 .5 0s.5.224.5.5v.562L1.061 1H3v2H1v2zm6-4v2H5V1h2zm4 0v2H9V1.5c.769 0 1.427-.166 1.974-.499L11 1zM4 0c.363 0 .692.05 1.001.13L5 1H3V.076C3.31.026 3.643 0 4 0zm8 0v1h-1l.001-.016c.39-.242.723-.57.999-.984z"/>
    </defs>
    <g fill="none" fill-rule="evenodd" transform="translate(1)">
        <mask id="prefix__b" fill="#fff">
            <use xlink:href="#prefix__a"/>
        </mask>
        <use fill="#000" xlink:href="#prefix__a"/>
        <g fill="#666" fill-rule="nonzero" mask="url(#prefix__b)">
            <path d="M0 0H14V14H0z" transform="translate(-1)"/>
        </g>
    </g>
</svg>
