<svg xmlns="http://www.w3.org/2000/svg" xmlns:xlink="http://www.w3.org/1999/xlink" width="14" height="14" viewBox="0 0 14 14">
    <defs>
        <path id="prefix__a" d="M7 0c3.866 0 7 3.134 7 7s-3.134 7-7 7-7-3.134-7-7 3.134-7 7-7zm0 1C3.686 1 1 3.686 1 7s2.686 6 6 6 6-2.686 6-6-2.686-6-6-6zm0 1.5c.276 0 .5.224.5.5v3.688l2.531 1.462c.24.138.321.444.183.683-.138.24-.444.321-.683.183l-2.598-1.5-.043-.028c-.223-.05-.39-.25-.39-.488V3c0-.276.224-.5.5-.5z"/>
    </defs>
    <g fill="none" fill-rule="evenodd">
        <mask id="prefix__b" fill="#fff">
            <use xlink:href="#prefix__a"/>
        </mask>
        <use fill="#979797" fill-rule="nonzero" xlink:href="#prefix__a"/>
        <g fill="#666" fill-rule="nonzero" mask="url(#prefix__b)">
            <path d="M0 0H14V14H0z"/>
        </g>
    </g>
</svg>
