<svg xmlns="http://www.w3.org/2000/svg" xmlns:xlink="http://www.w3.org/1999/xlink" width="18" height="18" viewBox="0 0 18 18">
    <defs>
        <path id="prefix__a" d="M9.032.032c3.016-.015 6.02 2.102 9.014 6.35-3.037 4.28-6.063 6.428-9.078 6.443-3.016.015-6.02-2.102-9.014-6.35C2.991 2.194 6.017.047 9.032.031zm-.006 1.28c-2.268.011-4.675 1.56-7.189 4.765l-.299.388.019.027c2.489 3.304 4.888 4.946 7.165 5.049l.252.005c2.268-.012 4.675-1.56 7.189-4.766l.299-.39-.019-.025C13.863 2.94 11.378 1.3 9.026 1.312zM9 2.572c.392 0 .77.06 1.127.17C9.462 3.042 9 3.717 9 4.5c0 1.065.855 1.929 1.91 1.929.774 0 1.442-.467 1.74-1.137.11.358.168.74.168 1.137 0 2.13-1.71 3.857-3.818 3.857-2.109 0-3.818-1.727-3.818-3.857S6.892 2.57 9 2.57z"/>
    </defs>
    <g fill="none" fill-rule="evenodd" transform="translate(0 2.571)">
        <mask id="prefix__b" fill="#fff">
            <use xlink:href="#prefix__a"/>
        </mask>
        <use fill="#000" fill-rule="nonzero" xlink:href="#prefix__a"/>
        <g fill="#666" fill-rule="nonzero" mask="url(#prefix__b)">
            <path d="M0 0H18V18H0z" transform="translate(0 -2.571)"/>
        </g>
    </g>
</svg>
