<svg xmlns="http://www.w3.org/2000/svg" xmlns:xlink="http://www.w3.org/1999/xlink" width="14" height="14" viewBox="0 0 14 14">
    <defs>
        <path id="prefix__a" d="M7 0c3.866 0 7 3.134 7 7s-3.134 7-7 7-7-3.134-7-7 3.134-7 7-7zm0 1C3.686 1 1 3.686 1 7s2.686 6 6 6 6-2.686 6-6-2.686-6-6-6zM6 6v1h-.5v2h-1V7h-1v2h-1V7H2V6h4zm6 0v1h-.5v2h-1V7h-1v2h-1V7H8V6h4z"/>
    </defs>
    <g fill="none" fill-rule="evenodd">
        <mask id="prefix__b" fill="#fff">
            <use xlink:href="#prefix__a"/>
        </mask>
        <use fill="#979797" fill-rule="nonzero" xlink:href="#prefix__a"/>
        <g fill="#666" fill-rule="nonzero" mask="url(#prefix__b)">
            <path d="M0 0H14V14H0z"/>
        </g>
    </g>
</svg>
