<svg xmlns="http://www.w3.org/2000/svg" xmlns:xlink="http://www.w3.org/1999/xlink" width="18" height="18" viewBox="0 0 18 18">
    <defs>
        <path id="prefix__a" d="M9 5.143c3.195 0 5.786 2.59 5.786 5.786v5.785h1.428c.276 0 .5.224.5.5v.286c0 .276-.224.5-.5.5H1.786c-.276 0-.5-.224-.5-.5v-.286c0-.276.224-.5.5-.5h1.428v-5.785c0-3.196 2.59-5.786 5.786-5.786zm0 1.286c-2.402 0-4.365 1.882-4.493 4.253l-.007.247v5.785h9V10.93c0-2.403-1.883-4.366-4.253-4.494L9 6.43zm-1.929 7.714v1.286H5.786v-1.286H7.07zm.243-5.335c.16.114.37.44.287.773-.318.434-.493 1.015-.524 1.743l-.006.247v1.286H5.786v-1.286c0-1.194.214-2.051.643-2.571.328-.315.623-.379.885-.192zM.994 4.97l.082.038 1.917 1.107c.213.123.301.378.221.601l-.037.082-.143.248c-.123.212-.378.3-.601.22l-.082-.037L.433 6.12c-.213-.123-.3-.378-.221-.602l.038-.081.143-.248c.123-.212.378-.3.601-.22zm16.825.221l.143.248c.138.239.056.545-.183.683l-1.917 1.107c-.24.138-.545.056-.683-.183l-.143-.248c-.138-.239-.056-.545.183-.683l1.917-1.107c.24-.138.545-.056.683.183zM4.336 1.811l1.348 1.757c.168.219.127.533-.092.7l-.227.175c-.219.168-.533.126-.701-.093L3.316 2.594c-.168-.22-.127-.533.092-.701l.227-.174c.219-.168.533-.127.701.092zm9.96-.14l.076.048.227.174c.194.149.249.414.14.624l-.048.077-1.348 1.756c-.15.195-.414.25-.625.141l-.076-.048-.227-.174c-.194-.15-.249-.414-.14-.625l.048-.076 1.348-1.757c.15-.195.414-.25.625-.14zM9.143 0c.276 0 .5.224.5.5v2.214c0 .276-.224.5-.5.5h-.286c-.276 0-.5-.224-.5-.5V.5c0-.276.224-.5.5-.5h.286z"/>
    </defs>
    <g fill="none" fill-rule="evenodd">
        <mask id="prefix__b" fill="#fff">
            <use xlink:href="#prefix__a"/>
        </mask>
        <use fill="#000" xlink:href="#prefix__a"/>
        <g fill="#666" fill-rule="nonzero" mask="url(#prefix__b)">
            <path d="M0 0H18V18H0z"/>
        </g>
    </g>
</svg>
