<svg xmlns="http://www.w3.org/2000/svg" xmlns:xlink="http://www.w3.org/1999/xlink" width="14" height="14" viewBox="0 0 14 14">
    <defs>
        <path id="prefix__a" d="M7 0c3.866 0 7 3.134 7 7s-3.134 7-7 7-7-3.134-7-7 3.134-7 7-7zM1.018 6.528l-.002.024C1.006 6.7 1 6.85 1 7c0 2.973 2.162 5.44 5 5.917V13c0-1.019-.109-2.121-.327-3.307-.82-.407-1.428-1.176-1.614-2.097-.018-.012-.039-.022-.059-.031-.736-.358-1.73-.704-2.982-1.037zm11.964.001l.035-.008c-1.26.299-2.26.628-3 .988l-.067.033c-.173.952-.795 1.746-1.639 2.157-.202 1.143-.305 2.215-.31 3.218C10.838 12.44 13 9.972 13 7c0-.158-.006-.315-.018-.47zM7 6c-.552 0-1 .448-1 1s.448 1 1 1 1-.448 1-1-.448-1-1-1zm0-5C4.514 1 2.38 2.512 1.47 4.667c.935.256 1.777.383 2.53.383l.721-.001C5.271 4.407 6.088 4 7 4c.91 0 1.727.406 2.277 1.047h.74c.748 0 1.586-.125 2.513-.376C11.62 2.513 9.487 1 7 1z"/>
    </defs>
    <g fill="none" fill-rule="evenodd">
        <mask id="prefix__b" fill="#fff">
            <use xlink:href="#prefix__a"/>
        </mask>
        <use fill="#979797" fill-rule="nonzero" xlink:href="#prefix__a"/>
        <g fill="#666" fill-rule="nonzero" mask="url(#prefix__b)">
            <path d="M0 0H14V14H0z"/>
        </g>
    </g>
</svg>
